{
  "accessors": [
    {
      "bufferView": 2,
      "componentType": 5126,
      "count": 2264,
      "max": [
        2.0914199352264404,
        2.0743401050567627,
        6.716509819030762
      ],
      "min": [
        -1.59142005443573,
        -1.5743399858474731,
        -6.667970180511475
      ],
      "type": "VEC3"
    },
    {
      "bufferView": 2,
      "byteOffset": 27168,
      "componentType": 5126,
      "count": 2264,
      "max": [
        1.0,
        1.0,
        1.0
      ],
      "min": [
        -1.0,
        -1.0,
        -0.9918025135993958
      ],
      "type": "VEC3"
    },
    {
      "bufferView": 3,
      "componentType": 5126,
      "count": 2264,
      "max": [
        1.0,
        1.0,
        0.9998608231544495,
        1.0
      ],
      "min": [
        -1.0,
        -1.0,
        -0.9998608231544495,
        1.0
      ],
      "type": "VEC4"
    },
    {
      "bufferView": 1,
      "componentType": 5126,
      "count": 2264,
      "max": [
        1.0,
        1.0
      ],
      "min": [
        0.0,
        0.0
      ],
      "type": "VEC2"
    },
    {
      "bufferView": 0,
      "componentType": 5125,
      "count": 3408,
      "type": "SCALAR"
    },
    {
      "bufferView": 2,
      "byteOffset": 54336,
      "componentType": 5126,
      "count": 24,
      "max": [
        19.636980056762695,
        1.128250002861023,
        1.0
      ],
      "min": [
        -2.24357008934021,
        -1.128250002861023,
        -1.0
      ],
      "type": "VEC3"
    },
    {
      "bufferView": 2,
      "byteOffset": 54624,
      "componentType": 5126,
      "count": 24,
      "max": [
        0.8492241501808167,
        0.9979506134986877,
        1.0
      ],
      "min": [
        -0.8492241501808167,
        -0.9979506134986877,
        -1.0
      ],
      "type": "VEC3"
    },
    {
      "bufferView": 3,
      "byteOffset": 36224,
      "componentType": 5126,
      "count": 24,
      "max": [
        5.583570964518003e-05,
        1.0,
        0.0,
        1.0
      ],
      "min": [
        -5.5567263189004734e-05,
        -1.0,
        -0.9979506134986877,
        1.0
      ],
      "type": "VEC4"
    },
    {
      "bufferView": 1,
      "byteOffset": 18112,
      "componentType": 5126,
      "count": 24,
      "max": [
        1.0,
        1.0
      ],
      "min": [
        0.0,
        0.0
      ],
      "type": "VEC2"
    },
    {
      "bufferView": 0,
      "byteOffset": 13632,
      "componentType": 5125,
      "count": 36,
      "type": "SCALAR"
    },
    {
      "bufferView": 2,
      "byteOffset": 54912,
      "componentType": 5126,
      "count": 2204,
      "max": [
        3.9178600311279297,
        0.07858999818563461,
        0.8388000130653381
      ],
      "min": [
        -3.9178600311279297,
        -0.07858999818563461,
        -0.8388000130653381
      ],
      "type": "VEC3"
    },
    {
      "bufferView": 2,
      "byteOffset": 81360,
      "componentType": 5126,
      "count": 2204,
      "max": [
        1.0,
        1.0,
        1.0
      ],
      "min": [
        -1.0,
        -1.0,
        -1.0
      ],
      "type": "VEC3"
    },
    {
      "bufferView": 3,
      "byteOffset": 36608,
      "componentType": 5126,
      "count": 2204,
      "max": [
        0.5006990432739258,
        1.0,
        1.0,
        1.0
      ],
      "min": [
        -1.0,
        -1.0,
        -1.0,
        1.0
      ],
      "type": "VEC4"
    },
    {
      "bufferView": 1,
      "byteOffset": 18304,
      "componentType": 5126,
      "count": 2204,
      "max": [
        1.0,
        1.0
      ],
      "min": [
        0.0,
        0.0
      ],
      "type": "VEC2"
    },
    {
      "bufferView": 0,
      "byteOffset": 13776,
      "componentType": 5125,
      "count": 3432,
      "type": "SCALAR"
    },
    {
      "bufferView": 2,
      "byteOffset": 107808,
      "componentType": 5126,
      "count": 136,
      "max": [
        1.342900037765503,
        1.342900037765503,
        -0.19508999586105347
      ],
      "min": [
        -1.342900037765503,
        -1.342900037765503,
        -1.1461999416351318
      ],
      "type": "VEC3"
    },
    {
      "bufferView": 2,
      "byteOffset": 109440,
      "componentType": 5126,
      "count": 136,
      "max": [
        1.0,
        1.0,
        0.47878700494766235
      ],
      "min": [
        -1.0,
        -1.0,
        0.0
      ],
      "type": "VEC3"
    },
    {
      "bufferView": 1,
      "byteOffset": 35936,
      "componentType": 5126,
      "count": 136,
      "max": [
        0.9843000173568726,
        0.935230016708374
      ],
      "min": [
        0.0,
        0.0
      ],
      "type": "VEC2"
    },
    {
      "bufferView": 0,
      "byteOffset": 27504,
      "componentType": 5125,
      "count": 384,
      "type": "SCALAR"
    },
    {
      "bufferView": 2,
      "byteOffset": 111072,
      "componentType": 5126,
      "count": 350,
      "max": [
        1.0,
        1.0,
        1.0
      ],
      "min": [
        -1.0,
        -1.0,
        -0.19508999586105347
      ],
      "type": "VEC3"
    },
    {
      "bufferView": 2,
      "byteOffset": 115272,
      "componentType": 5126,
      "count": 350,
      "max": [
        1.0,
        1.0,
        1.0
      ],
      "min": [
        -1.0,
        -1.0,
        0.0
      ],
      "type": "VEC3"
    },
    {
      "bufferView": 1,
      "byteOffset": 37024,
      "componentType": 5126,
      "count": 350,
      "max": [
        1.0,
        1.0
      ],
      "min": [
        0.0,
        0.0
      ],
      "type": "VEC2"
    },
    {
      "bufferView": 0,
      "byteOffset": 29040,
      "componentType": 5125,
      "count": 1632,
      "type": "SCALAR"
    }
  ],
  "asset": {
    "extras": {
      "author": "Gunnar Correa (https://sketchfab.com/gunnarcorrea)",
      "license": "CC-BY-4.0 (http://creativecommons.org/licenses/by/4.0/)",
      "source": "https://sketchfab.com/3d-models/energy-tower-faef1d8061c34cf6bd8e0f2a508d1d69",
      "title": "Energy Tower"
    },
    "generator": "Sketchfab-12.68.0",
    "version": "2.0"
  },
  "bufferViews": [
    {
      "buffer": 0,
      "byteLength": 35568,
      "name": "floatBufferViews",
      "target": 34963
    },
    {
      "buffer": 0,
      "byteLength": 39824,
      "byteOffset": 35568,
      "byteStride": 8,
      "name": "floatBufferViews",
      "target": 34962
    },
    {
      "buffer": 0,
      "byteLength": 119472,
      "byteOffset": 75392,
      "byteStride": 12,
      "name": "floatBufferViews",
      "target": 34962
    },
    {
      "buffer": 0,
      "byteLength": 71872,
      "byteOffset": 194864,
      "byteStride": 16,
      "name": "floatBufferViews",
      "target": 34962
    }
  ],
  "buffers": [
    {
      "byteLength": 266736,
      "uri": "scene.bin"
    }
  ],
  "images": [
    {
      "uri": "textures/material_baseColor.png"
    },
    {
      "uri": "textures/BaseFios_baseColor.png"
    },
    {
      "uri": "textures/BaseFios_normal.png"
    },
    {
      "uri": "textures/Concreto_baseColor.png"
    },
    {
      "uri": "textures/Concreto_normal.png"
    },
    {
      "uri": "textures/Metal_baseColor.png"
    },
    {
      "uri": "textures/Metal_normal.png"
    }
  ],
  "materials": [
    {
      "doubleSided": true,
      "name": "material",
      "pbrMetallicRoughness": {
        "baseColorTexture": {
          "index": 0
        },
        "metallicFactor": 0.8370807926829268,
        "roughnessFactor": 0.7639100609756098
      }
    },
    {
      "doubleSided": true,
      "emissiveFactor": [
        1.0,
        0.0,
        0.0
      ],
      "name": "LuzVermelha",
      "pbrMetallicRoughness": {
        "baseColorTexture": {
          "index": 0
        },
        "metallicFactor": 0.5992759146341463,
        "roughnessFactor": 0.49561737804878053
      }
    },
    {
      "doubleSided": true,
      "name": "BaseFios",
      "normalTexture": {
        "index": 2
      },
      "pbrMetallicRoughness": {
        "baseColorTexture": {
          "index": 1
        },
        "metallicFactor": 0.6236661585365854,
        "roughnessFactor": 0.6602515243902439
      }
    },
    {
      "doubleSided": true,
      "name": "Concreto",
      "normalTexture": {
        "index": 4
      },
      "pbrMetallicRoughness": {
        "baseColorTexture": {
          "index": 3
        },
        "metallicFactor": 0.0,
        "roughnessFactor": 0.6
      }
    },
    {
      "doubleSided": true,
      "name": "Metal",
      "normalTexture": {
        "index": 6
      },
      "pbrMetallicRoughness": {
        "baseColorTexture": {
          "index": 5
        },
        "metallicFactor": 0.7517149390243902,
        "roughnessFactor": 0.6
      }
    }
  ],
  "meshes": [
    {
      "name": "Base_0",
      "primitives": [
        {
          "attributes": {
            "NORMAL": 1,
            "POSITION": 0,
            "TANGENT": 2,
            "TEXCOORD_0": 3
          },
          "indices": 4,
          "material": 4,
          "mode": 4
        }
      ]
    },
    {
      "name": "Chao_0",
      "primitives": [
        {
          "attributes": {
            "NORMAL": 6,
            "POSITION": 5,
            "TANGENT": 7,
            "TEXCOORD_0": 8
          },
          "indices": 9,
          "material": 3,
          "mode": 4
        }
      ]
    },
    {
      "name": "BaseFios_0",
      "primitives": [
        {
          "attributes": {
            "NORMAL": 11,
            "POSITION": 10,
            "TANGENT": 12,
            "TEXCOORD_0": 13
          },
          "indices": 14,
          "material": 2,
          "mode": 4
        }
      ]
    },
    {
      "name": "Luz_0",
      "primitives": [
        {
          "attributes": {
            "NORMAL": 16,
            "POSITION": 15,
            "TEXCOORD_0": 17
          },
          "indices": 18,
          "material": 0,
          "mode": 4
        }
      ]
    },
    {
      "name": "Luz_1",
      "primitives": [
        {
          "attributes": {
            "NORMAL": 20,
            "POSITION": 19,
            "TEXCOORD_0": 21
          },
          "indices": 22,
          "material": 1,
          "mode": 4
        }
      ]
    }
  ],
  "nodes": [
    {
      "children": [
        1
      ],
      "matrix": [
        1.0,
        0.0,
        0.0,
        0.0,
        0.0,
        2.220446049250313e-16,
        -1.0,
        0.0,
        0.0,
        1.0,
        2.220446049250313e-16,
        0.0,
        0.0,
        0.0,
        0.0,
        1.0
      ],
      "name": "Sketchfab_model"
    },
    {
      "children": [
        2,
        4,
        6,
        8
      ],
      "name": "Root"
    },
    {
      "children": [
        3
      ],
      "matrix": [
        1.0,
        0.0,
        0.0,
        0.0,
        0.0,
        1.0,
        0.0,
        0.0,
        0.0,
        0.0,
        1.0,
        0.0,
        -1.52838,
        -1.6991,
        5.667969999999999,
        1.0
      ],
      "name": "Base"
    },
    {
      "mesh": 0,
      "name": "Base_0"
    },
    {
      "children": [
        5
      ],
      "matrix": [
        0.21690000000000004,
        0.0,
        0.0,
        0.0,
        0.0,
        2.2871300000000008,
        0.0,
        0.0,
        0.0,
        0.0,
        0.21690000000000004,
        0.0,
        -3.17754,
        -1.4719399999999998,
        -1.1941800000000002,
        1.0
      ],
      "name": "Chao"
    },
    {
      "mesh": 1,
      "name": "Chao_0"
    },
    {
      "children": [
        7
      ],
      "matrix": [
        1.0,
        0.0,
        0.0,
        0.0,
        0.0,
        1.0,
        0.0,
        0.0,
        0.0,
        0.0,
        1.0,
        0.0,
        -1.25514,
        -2.15875,
        9.99207,
        1.0
      ],
      "name": "BaseFios"
    },
    {
      "mesh": 2,
      "name": "BaseFios_0"
    },
    {
      "children": [
        9,
        10
      ],
      "matrix": [
        0.20640000000000003,
        0.0,
        0.0,
        0.0,
        0.0,
        0.20640000000000003,
        0.0,
        0.0,
        0.0,
        0.0,
        0.20640000000000003,
        0.0,
        -1.2732299999999999,
        -1.46125,
        12.203199999999999,
        1.0
      ],
      "name": "Luz"
    },
    {
      "mesh": 3,
      "name": "Luz_0"
    },
    {
      "mesh": 4,
      "name": "Luz_1"
    }
  ],
  "samplers": [
    {
      "magFilter": 9729,
      "minFilter": 9987,
      "wrapS": 10497,
      "wrapT": 10497
    }
  ],
  "scene": 0,
  "scenes": [
    {
      "name": "Sketchfab_Scene",
      "nodes": [
        0
      ]
    }
  ],
  "textures": [
    {
      "sampler": 0,
      "source": 0
    },
    {
      "sampler": 0,
      "source": 1
    },
    {
      "sampler": 0,
      "source": 2
    },
    {
      "sampler": 0,
      "source": 3
    },
    {
      "sampler": 0,
      "source": 4
    },
    {
      "sampler": 0,
      "source": 5
    },
    {
      "sampler": 0,
      "source": 6
    }
  ]
}
